<svg width="55" height="15" viewBox="0 0 55 15" fill="none" xmlns="http://www.w3.org/2000/svg">
<path d="M6.51336 5.37741C6.18038 4.98833 5.76086 4.67729 5.28623 4.46758C4.83569 4.27118 4.34902 4.16449 3.8551 4.15385C3.30908 4.1367 2.7651 4.22633 2.25561 4.41738C1.79789 4.59129 1.38228 4.85513 1.03495 5.19231C0.695294 5.52619 0.432639 5.92613 0.264344 6.36567C-0.0881151 7.32551 -0.0881151 8.37377 0.264344 9.3336C0.431413 9.77651 0.694136 10.1798 1.03495 10.5164C1.38192 10.854 1.79763 11.1179 2.25561 11.2913C2.7651 11.4824 3.30908 11.572 3.8551 11.5548C4.34902 11.5442 4.83569 11.4375 5.28623 11.2411C5.76092 11.0315 6.18046 10.7204 6.51336 10.3313L5.67477 9.70381C5.48497 9.97693 5.23224 10.2036 4.93654 10.3658C4.60808 10.5493 4.23419 10.6426 3.8551 10.6356C3.46404 10.6522 3.07397 10.5858 2.71215 10.4411C2.3853 10.3152 2.0896 10.1238 1.84441 9.8795C1.60092 9.62013 1.41569 9.31458 1.30045 8.98222C1.05196 8.25387 1.05196 7.46737 1.30045 6.73902C1.41618 6.40781 1.60138 6.10338 1.84441 5.84488C2.08532 5.59236 2.3789 5.39237 2.70567 5.25819C3.06755 5.11367 3.45758 5.04729 3.84863 5.06368C4.22772 5.05667 4.60161 5.14995 4.93006 5.33349C5.2257 5.49581 5.47841 5.72242 5.66829 5.99547L6.50689 5.368L6.51336 5.37741ZM8.96764 11.3854H9.99404V7.77121C9.97132 7.25097 10.0826 6.73344 10.3178 6.26528C10.4873 5.94663 10.7286 5.66893 11.0237 5.45271C11.242 5.28755 11.4951 5.17082 11.7651 5.11074C11.9108 5.08607 12.0578 5.06931 12.2055 5.06054C12.961 5.06054 13.479 5.2697 13.7596 5.68801C14.0736 6.23738 14.2196 6.86202 14.1806 7.48885V11.3854H15.2069V6.91157C15.2568 6.17477 15.0187 5.44677 14.54 4.8723C14.0888 4.40379 13.397 4.16953 12.4645 4.16953C12.2204 4.17022 11.9775 4.20293 11.7425 4.26679C11.5015 4.33053 11.269 4.42107 11.0496 4.5366C10.8358 4.64987 10.6378 4.78903 10.4603 4.95073C10.2899 5.10497 10.1437 5.28254 10.0264 5.47781H9.99404V1.1968e-08H8.96764V11.3854ZM23.376 7.87788V8.38926C23.3777 8.68792 23.333 8.98513 23.2433 9.27086C23.1613 9.53843 23.02 9.78543 22.8293 9.9946C22.6386 10.2038 22.4031 10.3701 22.1392 10.4819C21.8325 10.609 21.5013 10.671 21.1678 10.6638C20.9607 10.6636 20.7543 10.6404 20.5526 10.5948C20.3567 10.5519 20.1703 10.4754 20.0022 10.3689C19.8389 10.2653 19.7035 10.1255 19.6072 9.96107C19.5037 9.77874 19.4523 9.57297 19.4582 9.36498C19.4509 9.20762 19.4816 9.05077 19.5479 8.90695C19.6142 8.76314 19.7144 8.63635 19.8403 8.53672C20.1102 8.32769 20.4223 8.17591 20.7566 8.09122C21.1227 7.99406 21.4981 7.93309 21.8769 7.90925C22.2654 7.88415 22.5892 7.8716 22.8482 7.8716L23.376 7.87788ZM22.8644 7.0653C22.4327 7.0653 21.9535 7.08517 21.4268 7.12491C20.9224 7.16524 20.4259 7.27075 19.9504 7.43865C19.5106 7.58611 19.1155 7.83733 18.8009 8.16965C18.4762 8.54631 18.3118 9.02873 18.3412 9.51871C18.3336 9.83007 18.406 10.1384 18.5516 10.416C18.6885 10.6678 18.8795 10.8882 19.1118 11.0623C19.3502 11.241 19.6217 11.3741 19.9115 11.4545C20.2144 11.5403 20.5284 11.5836 20.844 11.5831C21.3624 11.5963 21.8766 11.4887 22.3431 11.2693C22.7873 11.0311 23.1557 10.6795 23.4084 10.2528H23.4408C23.4408 10.4432 23.4483 10.6387 23.4634 10.8395C23.4785 11.0403 23.5034 11.2223 23.5379 11.3854H24.5093C24.479 11.1951 24.451 10.9514 24.4251 10.6544C24.3992 10.3574 24.3905 10.0782 24.3992 9.81676V6.67941C24.4092 6.29745 24.3352 5.91781 24.1822 5.56565C24.0486 5.27087 23.8522 5.00679 23.6059 4.79073C23.3599 4.58141 23.0707 4.42526 22.7576 4.33267C22.4287 4.23209 22.0858 4.18129 21.7409 4.18208C20.3724 4.18208 19.3471 4.52301 18.665 5.20486L19.2866 5.9139C19.8902 5.3724 20.6853 5.07594 21.5078 5.08564C22.7511 5.08564 23.3728 5.69324 23.3728 6.90844V7.0904L22.8644 7.0653ZM27.8054 4.33895C27.827 4.6004 27.8453 4.87648 27.8604 5.16721C27.8755 5.45794 27.8831 5.69847 27.8831 5.8888V11.3854H28.9095V7.77121C28.8868 7.25097 28.998 6.73344 29.2332 6.26528C29.4028 5.94663 29.644 5.66893 29.9391 5.45271C30.1575 5.28755 30.4106 5.17082 30.6806 5.11074C30.8239 5.08314 30.9688 5.06324 31.1144 5.05113C31.8699 5.05113 32.388 5.26028 32.6686 5.6786C32.9825 6.22797 33.1285 6.8526 33.0895 7.47943V11.3854H34.1159V6.91157C34.1658 6.17477 33.9277 5.44677 33.4489 4.8723C33.0021 4.40379 32.3124 4.16953 31.3799 4.16953C31.1358 4.17022 30.8929 4.20293 30.6579 4.26679C30.417 4.33053 30.1845 4.42107 29.965 4.5366C29.7484 4.64626 29.5471 4.78227 29.366 4.94132C29.1956 5.09556 29.0494 5.27313 28.9321 5.46839H28.8998C28.8998 5.27806 28.8998 5.08982 28.8998 4.90367C28.8998 4.71752 28.8868 4.52928 28.8609 4.33895H27.8054ZM38.5841 6.72647C38.719 6.40751 38.9145 6.11592 39.1605 5.86684C39.4046 5.6207 39.6946 5.42162 40.0152 5.28015C40.3495 5.13246 40.7131 5.0575 41.0805 5.06054C41.4752 5.05534 41.8667 5.13015 42.2299 5.28015C42.5584 5.41634 42.8547 5.61597 43.1009 5.86684C43.3404 6.11478 43.5254 6.40722 43.6449 6.72647C43.7714 7.06213 43.835 7.417 43.8326 7.77434C43.8484 8.15464 43.7822 8.53394 43.6384 8.8881C43.5046 9.2102 43.3002 9.5003 43.0394 9.73832C42.5128 10.2167 41.8185 10.4835 41.0967 10.485C40.7293 10.4882 40.3657 10.4132 40.0314 10.2654C39.7107 10.1241 39.4207 9.92497 39.1766 9.67871C38.9306 9.42973 38.7351 9.13811 38.6003 8.81908C38.3207 8.14785 38.3207 7.3977 38.6003 6.72647H38.5841ZM37.425 13.5816C37.8585 14.0413 38.3884 14.4061 38.9791 14.6514C39.5965 14.8906 40.257 15.0079 40.9218 14.9965C41.6041 15.0229 42.2837 14.8995 42.9099 14.6357C43.3732 14.4284 43.7802 14.119 44.0981 13.7322C44.3781 13.3817 44.5749 12.9757 44.6745 12.5431C44.7696 12.1427 44.8195 11.7335 44.8234 11.3227V4.33895H43.797V5.51232H43.7647C43.41 5.03547 42.929 4.6604 42.3724 4.4268C42.1377 4.32935 41.8922 4.2588 41.6406 4.21659C41.4118 4.17796 41.18 4.15802 40.9477 4.15698C40.439 4.15178 39.9345 4.24678 39.4648 4.43621C39.0255 4.61431 38.6288 4.87808 38.2992 5.21113C37.9691 5.54752 37.7076 5.94138 37.5286 6.37195C37.34 6.82657 37.2454 7.31264 37.2501 7.80258C37.2456 8.29403 37.3459 8.78109 37.5448 9.23321C37.7324 9.66103 38.0078 10.0474 38.3542 10.3689C38.7029 10.69 39.1118 10.9434 39.5587 11.1156C40.0303 11.2977 40.534 11.3894 41.0416 11.3854C41.5616 11.3836 42.0755 11.2768 42.5505 11.0717C43.0485 10.8527 43.4695 10.4971 43.7614 10.0489H43.7938V11.3039C43.7957 11.6675 43.7456 12.0297 43.6449 12.38C43.5546 12.7065 43.391 13.0097 43.1657 13.2678C42.9259 13.5309 42.6252 13.7352 42.2882 13.8639C41.8669 14.02 41.4181 14.0946 40.9672 14.0835C40.4061 14.0922 39.851 13.9707 39.3482 13.729C38.8867 13.5088 38.4852 13.1864 38.1762 12.7878L37.425 13.5816ZM48.9711 7.30688C48.9717 7.01343 49.0438 6.72427 49.1815 6.46293C49.3221 6.19179 49.5118 5.94736 49.7417 5.74134C49.9803 5.52699 50.2566 5.3559 50.5576 5.23623C50.8651 5.11091 51.1954 5.04689 51.529 5.04799C51.8484 5.02972 52.1682 5.07608 52.4681 5.18411C52.768 5.29213 53.0414 5.45947 53.2709 5.67546C53.4791 5.89476 53.6403 6.15184 53.7453 6.43185C53.8504 6.71186 53.8971 7.00926 53.8829 7.30688H48.9711ZM54.9999 8.11945V7.68022C55.0026 7.21682 54.9238 6.75636 54.7668 6.31861C54.6203 5.90728 54.3902 5.52857 54.0901 5.20486C53.7857 4.8807 53.4153 4.62112 53.0022 4.44248C52.5367 4.24646 52.0333 4.14912 51.5257 4.15698C51.0297 4.15312 50.5382 4.24816 50.0817 4.43621C49.6436 4.61646 49.2473 4.87996 48.916 5.21113C48.58 5.54897 48.3159 5.9477 48.139 6.3845C47.9496 6.8542 47.855 7.35479 47.8605 7.85905C47.8555 8.36415 47.9535 8.86523 48.1487 9.3336C48.3299 9.76974 48.5959 10.1681 48.9322 10.507C49.2691 10.8417 49.6737 11.1055 50.1205 11.2819C50.5963 11.4701 51.1058 11.565 51.6196 11.5611C52.2011 11.5656 52.7766 11.4479 53.3066 11.216C53.8732 10.951 54.3662 10.5583 54.7442 10.0709L53.9509 9.44341C53.7172 9.78932 53.4063 10.0799 53.041 10.2936C52.6142 10.5476 52.1204 10.6762 51.6196 10.6638C51.2727 10.6673 50.9287 10.6011 50.6094 10.4693C49.9849 10.2106 49.485 9.7318 49.2107 9.12968C49.0642 8.8153 48.9744 8.47892 48.9452 8.13514L54.9999 8.11945Z" fill="black"/>
</svg>
