<svg width="53" height="17" viewBox="0 0 53 17" fill="none" xmlns="http://www.w3.org/2000/svg">
<path d="M0 16.5855H2.53069V4.18502H2.5715L9.60468 16.5855H12.8198V0.416708H10.286V12.4282H10.2483L3.34076 0.416708H0V16.5855ZM16.8608 12.0178C17.2102 13.0185 17.7403 13.9248 18.4168 14.6784C19.0934 15.4319 19.9014 16.0159 20.7887 16.3928C21.7547 16.8065 22.7801 17.0122 23.8123 16.9994C24.8572 16.9988 25.8929 16.7786 26.8674 16.35C27.7598 15.9549 28.5733 15.3603 29.2599 14.6014C29.9386 13.842 30.473 12.9323 30.8298 11.9286C31.2107 10.8306 31.3975 9.65801 31.3793 8.47791C31.3944 7.27474 31.2036 6.07971 30.8172 4.95938C30.464 3.9473 29.9294 3.02981 29.2473 2.26518C28.5656 1.51063 27.7499 0.93029 26.8548 0.563016C25.8754 0.164343 24.8398 -0.0255856 23.7998 0.00276414C22.7675 -0.0100363 21.7421 0.195682 20.7761 0.609406C19.8892 0.990656 19.0819 1.57764 18.4056 2.33298C17.7237 3.10192 17.1892 4.02285 16.8357 5.03789C16.4614 6.16592 16.2823 7.36547 16.3082 8.57069C16.2942 9.75056 16.4852 10.922 16.8702 12.0178H16.8608ZM19.3036 6.12628C19.5273 5.44609 19.8653 4.82189 20.2989 4.28851C20.7307 3.76004 21.2547 3.33956 21.8374 3.05382C22.4714 2.74742 23.1549 2.59547 23.8437 2.60776C24.5334 2.59737 25.2176 2.74924 25.8532 3.05382C26.4395 3.33771 26.9669 3.75835 27.4011 4.28851C27.8345 4.82206 28.1725 5.44621 28.3964 6.12628C28.629 6.84716 28.7439 7.61023 28.7355 8.37799C28.743 9.19459 28.624 10.0063 28.3839 10.776C28.1653 11.476 27.827 12.12 27.3886 12.6709C26.9552 13.2076 26.428 13.6354 25.8406 13.927C25.2067 14.2388 24.5218 14.3944 23.8312 14.3837C23.1434 14.3954 22.4615 14.2397 21.8311 13.927C21.2475 13.6335 20.7236 13.2058 20.2926 12.6709C19.854 12.1202 19.5157 11.4761 19.2973 10.776C19.058 10.0062 18.9401 9.19439 18.9488 8.37799C18.9431 7.60574 19.0623 6.83887 19.3004 6.11557L19.3036 6.12628ZM37.4736 16.5855H39.8034L43.1002 4.27424H43.141L46.4504 16.5855H48.8617L53 0.416708H50.4285L47.6341 12.0642H47.5932L44.4534 0.416708H41.9604L38.761 12.0642H38.7201L36.0482 0.416708H33.2631L37.4736 16.5855Z" fill="#00C26F"/>
</svg>
