<svg width="19" height="20" viewBox="0 0 19 20" fill="none" xmlns="http://www.w3.org/2000/svg">
<path d="M10.1707 0.71875H9.32402C9.2434 0.745381 9.12245 0.798595 8.96117 0.878391C8.58489 1.06466 8.30266 1.35734 8.1145 1.75642C7.98013 1.9959 7.91293 2.55464 7.91291 3.43264C7.91293 3.51249 7.91293 4.11114 7.91291 5.2286V8.18196H4.96974C3.03452 8.18198 2.01315 8.19528 1.90561 8.22187C1.07241 8.38153 0.56172 8.84715 0.373549 9.61873C0.346693 9.77838 0.333256 9.93803 0.333231 10.0977C0.333256 10.9225 0.709551 11.4945 1.46212 11.8138C1.59653 11.8936 1.74436 11.9468 1.90561 11.9734C2.01315 12.0001 3.03452 12.0134 4.96974 12.0133H7.91291V14.9667C7.91293 17.042 7.98013 18.1994 8.1145 18.4389C8.30266 18.838 8.58489 19.1307 8.96117 19.3169C9.33748 19.5032 9.70033 19.5697 10.0497 19.5165C10.1841 19.4899 10.332 19.4499 10.4932 19.3967C10.7351 19.3169 10.9636 19.1706 11.1786 18.9577C11.3937 18.7449 11.5415 18.5187 11.6221 18.2792C11.7028 18.0398 11.7431 16.909 11.7431 14.8869V12.0133H14.7669L17.7504 11.9734L17.9116 11.9335C18.7986 11.6675 19.269 11.0555 19.3228 10.0977C19.3228 9.19304 18.8524 8.58108 17.9116 8.26178L17.7504 8.18196H14.7669H11.7431V5.30842C11.7431 3.28633 11.7028 2.15554 11.6221 1.91606C11.5415 1.70323 11.3937 1.47707 11.1786 1.23758C10.883 0.971539 10.547 0.798595 10.1707 0.71875Z" fill="#25B0F8"/>
</svg>
